Coordinates
version=1
nRows=11
nColumns=63
inDegrees=yes

Units are S.I. units (second, meters, Newtons, ...)
If the header above contains a line with 'inDegrees', this indicates whether rotational values are in degrees (yes) or radians (no).

endheader
time	pelvis_tilt	pelvis_list	pelvis_rotation	pelvis_tx	pelvis_ty	pelvis_tz	hip_flexion_r	hip_adduction_r	hip_rotation_r	knee_angle_r	knee_angle_r_beta	ankle_angle_r	subtalar_angle_r	mtp_angle_r	hip_flexion_l	hip_adduction_l	hip_rotation_l	knee_angle_l	knee_angle_l_beta	ankle_angle_l	subtalar_angle_l	mtp_angle_l	L5_S1_Flex_Ext	L5_S1_Lat_Bending	L5_S1_axial_rotation	L4_L5_Flex_Ext	L4_L5_Lat_Bending	L4_L5_axial_rotation	L3_L4_Flex_Ext	L3_L4_Lat_Bending	L3_L4_axial_rotation	L2_L3_Flex_Ext	L2_L3_Lat_Bending	L2_L3_axial_rotation	L1_L2_Flex_Ext	L1_L2_Lat_Bending	L1_L2_axial_rotation	L1_T12_Flex_Ext	L1_T12_Lat_Bending	L1_T12_axial_rotation	Abs_r3	Abs_r2	Abs_r1	Abs_t1	Abs_t2	neck_flexion	neck_bending	neck_rotation	arm_flex_r	arm_add_r	arm_rot_r	elbow_flex_r	pro_sup_r	wrist_flex_r	wrist_dev_r	arm_flex_l	arm_add_l	arm_rot_l	elbow_flex_l	pro_sup_l	wrist_flex_l	wrist_dev_l
4.285714	-3.767432	-12.252299	84.410401	0.342809	0.771280	0.547912	8.922696	-2.398056	6.746239	0.502666	0.008773	16.891281	-6.830762	0.000000	9.714522	-0.137911	-2.138513	2.984376	0.052087	23.834216	2.866721	0.000000	-0.217940	-1.052033	-0.198834	-0.404736	-1.399203	-0.211261	-0.358054	-2.557912	-0.211261	-0.249084	-2.557912	-0.173980	-0.202379	-2.145305	-0.161553	-0.124531	-1.629598	-0.149125	-1.556724	-11.900802	-1.105855	0.000000	0.000000	20.031378	7.715411	-13.765824	22.239470	13.225219	24.290609	149.563274	88.585980	11.365825	13.116255	10.130514	-9.668809	138.774606	2.221333	2.226771	-4.061327	-6.376183
4.309524	-3.440121	-12.137191	84.887890	0.341326	0.771689	0.548994	8.809088	-2.163413	5.625264	0.501314	0.008750	16.730388	-6.224586	0.000000	9.427519	-0.290095	-1.202131	2.560826	0.044695	23.122615	2.028801	0.000000	-0.225675	-1.024842	-0.168257	-0.419100	-1.363040	-0.178773	-0.370761	-2.491800	-0.178773	-0.257924	-2.491800	-0.147225	-0.209562	-2.089857	-0.136709	-0.128951	-1.587480	-0.126192	-1.611972	-11.593215	-0.935793	0.000000	0.000000	20.440101	7.307742	-14.534190	22.767044	12.864472	23.988710	149.575927	88.682781	12.243940	13.120216	10.596827	-9.662278	139.028397	2.551117	2.357792	-3.707902	-5.993086
4.333333	-3.165812	-12.041406	85.286015	0.339860	0.772134	0.550293	8.754089	-1.969227	4.678824	0.508592	0.008877	16.570871	-5.712058	0.000000	9.188476	-0.402928	-0.239153	2.178310	0.038019	22.327965	1.038835	0.000000	-0.230617	-1.001408	-0.141571	-0.428278	-1.331873	-0.150420	-0.378880	-2.434824	-0.150420	-0.263572	-2.434824	-0.123875	-0.214151	-2.042071	-0.115027	-0.131774	-1.551181	-0.106179	-1.647273	-11.328129	-0.787378	0.000000	0.000000	20.980701	6.904516	-15.201662	23.279953	12.586557	23.800813	149.595237	88.780386	12.948920	13.280714	11.043600	-9.672114	139.211456	2.895321	2.489765	-3.388768	-5.674389
4.357143	-2.959489	-11.971764	85.618395	0.338373	0.772601	0.551789	8.767055	-1.839927	3.856799	0.546298	0.009535	16.435737	-5.240213	0.000000	9.009885	-0.459003	0.722737	1.838141	0.032082	21.484063	-0.029184	0.000000	-0.232077	-0.982215	-0.124416	-0.430991	-1.306347	-0.132192	-0.381280	-2.388159	-0.132192	-0.265241	-2.388159	-0.108864	-0.215507	-2.002934	-0.101088	-0.132609	-1.521452	-0.093312	-1.657706	-11.111018	-0.691963	0.000000	0.000000	21.632162	6.489456	-15.714356	23.756749	12.392480	23.865924	149.620009	88.877862	13.289029	13.507575	11.435767	-9.686919	139.262688	3.236469	2.606262	-3.208591	-5.477715
4.380952	-2.834546	-11.917857	85.862521	0.336869	0.773086	0.553431	8.838895	-1.793088	3.166099	0.631984	0.011030	16.322629	-4.793826	0.000000	8.893215	-0.446377	1.642747	1.569367	0.027391	20.638699	-1.148403	0.000000	-0.230280	-0.967954	-0.114420	-0.427652	-1.287378	-0.121571	-0.378327	-2.353483	-0.121571	-0.263187	-2.353483	-0.100117	-0.213838	-1.973851	-0.092966	-0.131582	-1.499360	-0.085815	-1.644865	-10.949686	-0.636368	0.000000	0.000000	22.370266	6.103729	-15.963308	24.174951	12.283467	24.241266	149.650017	88.970770	13.247313	13.787311	11.749090	-9.698396	139.155820	3.539396	2.694692	-3.166372	-5.464776
4.404762	-2.792249	-11.892171	86.057799	0.335309	0.773585	0.555129	8.977384	-1.839803	2.576654	0.790777	0.013802	16.219947	-4.405944	0.000000	8.846006	-0.357648	2.516697	1.355005	0.023649	19.820634	-2.227033	0.000000	-0.224061	-0.960069	-0.107696	-0.416103	-1.276892	-0.114427	-0.368109	-2.334311	-0.114427	-0.256079	-2.334311	-0.094234	-0.208063	-1.957772	-0.087503	-0.128028	-1.487147	-0.080772	-1.600443	-10.860491	-0.598971	0.000000	0.000000	23.159622	5.666687	-16.117062	24.489448	12.257809	24.853682	149.679396	89.055018	13.019342	13.871313	11.990596	-9.704787	138.881106	3.817720	2.766881	-3.435412	-5.683282
4.428571	-2.832548	-11.894179	86.228089	0.333656	0.774089	0.556817	9.172259	-1.986686	2.044858	1.027222	0.017928	16.114495	-4.085041	0.000000	8.877115	-0.188167	3.341570	1.212912	0.021169	19.071751	-3.211448	0.000000	-0.213337	-0.957711	-0.107411	-0.396188	-1.273755	-0.114124	-0.350491	-2.328578	-0.114124	-0.243823	-2.328578	-0.093984	-0.198104	-1.952964	-0.087271	-0.121901	-1.483494	-0.080558	-1.523843	-10.833816	-0.597386	0.000000	0.000000	23.954292	5.245185	-16.058568	24.724334	12.304933	25.723663	149.708088	89.125286	12.519098	13.808251	12.162082	-9.696348	138.463019	4.040570	2.823347	-3.888686	-6.051689
4.452381	-2.948962	-11.920447	86.308155	0.331973	0.774605	0.558426	9.433656	-2.223455	1.569224	1.356502	0.023675	16.016530	-3.731642	0.000000	8.958503	0.049760	4.099552	1.101023	0.019216	18.370929	-4.172747	0.000000	-0.197921	-0.961620	-0.100840	-0.367558	-1.278954	-0.107142	-0.325164	-2.338082	-0.107142	-0.226203	-2.338082	-0.088235	-0.183789	-1.960935	-0.081932	-0.113092	-1.489549	-0.075630	-1.413726	-10.878034	-0.560841	0.000000	0.000000	24.725575	4.812791	-15.856525	24.842323	12.437923	26.623700	149.736693	89.179116	12.314714	13.656449	12.257196	-9.663548	138.183277	4.136910	2.850774	-4.494792	-6.504461
4.476190	-3.114798	-11.974137	86.399458	0.330133	0.775136	0.559934	9.738977	-2.539363	1.007436	1.751310	0.030566	15.945989	-3.291680	0.000000	9.114606	0.345568	4.807620	1.059176	0.018486	17.768164	-5.008691	0.000000	-0.178345	-0.969141	-0.109428	-0.331204	-1.288957	-0.116267	-0.293003	-2.356368	-0.116267	-0.203830	-2.356368	-0.095749	-0.165611	-1.976271	-0.088910	-0.101906	-1.501199	-0.082071	-1.273899	-10.963112	-0.608605	0.000000	0.000000	25.435315	4.418020	-15.440428	24.892818	12.621509	27.671415	149.762211	89.210147	11.952629	13.408809	12.286035	-9.606639	138.171780	4.085841	2.853110	-5.164349	-6.980352
4.500000	-3.301903	-12.031732	86.500644	0.328125	0.775695	0.561261	10.054565	-2.907259	0.366251	2.197090	0.038346	15.914860	-2.739084	0.000000	9.297433	0.678489	5.551479	1.056606	0.018441	17.243420	-5.850404	0.000000	-0.155664	-0.977396	-0.133512	-0.289083	-1.299937	-0.141857	-0.255740	-2.376442	-0.141857	-0.177908	-2.376442	-0.116823	-0.144549	-1.993107	-0.108479	-0.088946	-1.513987	-0.100134	-1.111889	-11.056503	-0.742555	0.000000	0.000000	26.038909	4.091641	-14.765563	24.876940	12.828403	28.881757	149.781920	89.216989	11.146544	13.108237	12.269711	-9.528578	138.463513	3.924292	2.806182	-5.876136	-7.486268
4.523810	-3.501234	-12.069405	86.617198	0.325954	0.776300	0.562330	10.325156	-3.308596	-0.145147	2.632522	0.045946	15.827607	-2.361259	0.000000	9.482341	1.031656	6.137576	1.111366	0.019397	16.839304	-6.462422	0.000000	-0.131467	-0.985718	-0.174192	-0.244147	-1.311005	-0.185079	-0.215987	-2.396675	-0.185079	-0.150254	-2.396675	-0.152418	-0.122080	-2.010077	-0.141531	-0.075120	-1.526878	-0.130644	-0.939056	-11.150642	-0.968804	0.000000	0.000000	26.493456	3.849508	-13.816013	24.788721	13.066797	30.204867	149.795006	89.188257	9.764106	12.823327	12.229421	-9.473454	138.525049	3.807167	2.823952	-6.614319	-8.078923
